<svg width="19" height="23" viewBox="0 0 19 23" fill="none" xmlns="http://www.w3.org/2000/svg">
<path d="M15.7219 12.3132C15.7331 11.4465 15.9633 10.5966 16.3912 9.84274C16.819 9.08886 17.4306 8.45546 18.1691 8.00148C17.7 7.3315 17.0811 6.78014 16.3616 6.39118C15.6422 6.00223 14.8419 5.78639 14.0244 5.76081C12.2806 5.57777 10.59 6.80429 9.70142 6.80429C8.7956 6.80429 7.42743 5.77898 5.95413 5.8093C5.00117 5.84008 4.07242 6.1172 3.2584 6.61365C2.44437 7.11009 1.77282 7.80893 1.30918 8.64208C-0.6992 12.1193 0.798873 17.2296 2.72274 20.0403C3.68528 21.4166 4.81023 22.954 6.2822 22.8995C7.7226 22.8398 8.26057 21.981 9.99926 21.981C11.7218 21.981 12.2265 22.8995 13.7284 22.8648C15.274 22.8398 16.2478 21.4824 17.1766 20.093C17.8682 19.1124 18.4004 18.0285 18.7534 16.8816C17.8554 16.5018 17.0891 15.8661 16.5501 15.0537C16.011 14.2413 15.7229 13.2882 15.7219 12.3132V12.3132Z" fill="white"/>
<path d="M12.887 3.91003C13.7298 2.89835 14.145 1.59801 14.0444 0.285156C12.7569 0.420385 11.5676 1.03573 10.7135 2.0086C10.2959 2.48386 9.97604 3.03678 9.77224 3.63573C9.56845 4.23468 9.4847 4.86793 9.52579 5.49927C10.1698 5.5059 10.8069 5.36632 11.3891 5.09103C11.9713 4.81575 12.4835 4.41194 12.887 3.91003Z" fill="white"/>
</svg>
