<?xml version="1.0" encoding="UTF-8"?>
<svg id="Layer_1" data-name="Layer 1" xmlns="http://www.w3.org/2000/svg" viewBox="0 0 63.54 59.76">
  <defs>
    <style>
      .cls-1 {
        fill: none;
        stroke: #000;
        stroke-miterlimit: 10;
      }

      .cls-2 {
        stroke-width: 0px;
      }
    </style>
  </defs>
  <polygon class="cls-1" points="36.62 15.88 36.62 1.29 62.86 29.94 36.62 58.47 36.62 43.49 .5 43.49 .5 15.98 36.62 15.88"/>
  <g>
    <path class="cls-2" d="M6.39,24.22c.88-.13,1.92-.23,3.06-.23,2.07,0,3.54.48,4.51,1.39.99.91,1.57,2.2,1.57,4s-.56,3.31-1.6,4.33c-1.04,1.04-2.76,1.6-4.92,1.6-1.02,0-1.88-.05-2.61-.13v-10.96ZM7.82,34.06c.36.07.89.08,1.45.08,3.07,0,4.74-1.72,4.74-4.73.02-2.63-1.47-4.3-4.51-4.3-.74,0-1.31.07-1.69.15v8.79Z"/>
    <path class="cls-2" d="M26.91,29.52c0,3.83-2.33,5.87-5.17,5.87s-5.01-2.28-5.01-5.65c0-3.54,2.2-5.85,5.17-5.85s5.01,2.33,5.01,5.64ZM18.27,29.7c0,2.38,1.29,4.51,3.55,4.51s3.57-2.1,3.57-4.63c0-2.21-1.16-4.53-3.55-4.53s-3.57,2.2-3.57,4.64Z"/>
    <path class="cls-2" d="M38.3,29.52c0,3.83-2.33,5.87-5.17,5.87s-5.01-2.28-5.01-5.65c0-3.54,2.2-5.85,5.17-5.85s5.01,2.33,5.01,5.64ZM29.66,29.7c0,2.38,1.29,4.51,3.55,4.51s3.57-2.1,3.57-4.63c0-2.21-1.16-4.53-3.55-4.53s-3.57,2.2-3.57,4.64Z"/>
    <path class="cls-2" d="M40.18,24.22c.73-.15,1.77-.23,2.76-.23,1.54,0,2.53.28,3.22.91.56.5.88,1.26.88,2.12,0,1.47-.93,2.45-2.1,2.84v.05c.86.3,1.37,1.09,1.64,2.25.36,1.55.63,2.63.86,3.06h-1.49c-.18-.31-.43-1.27-.74-2.66-.33-1.54-.93-2.12-2.23-2.16h-1.35v4.83h-1.44v-10.99ZM41.61,29.29h1.47c1.54,0,2.51-.84,2.51-2.12,0-1.44-1.04-2.07-2.56-2.08-.69,0-1.19.07-1.42.13v4.07Z"/>
  </g>
</svg>